<?xml version="1.0" standalone="no"?>
<!DOCTYPE svg PUBLIC "-//W3C//DTD SVG 20010904//EN"
 "http://www.w3.org/TR/2001/REC-SVG-20010904/DTD/svg10.dtd">
<svg version="1.0" xmlns="http://www.w3.org/2000/svg"
 width="48.000000pt" height="48.000000pt" viewBox="0 0 48.000000 48.000000"
 preserveAspectRatio="xMidYMid meet">

<g transform="translate(0.000000,48.000000) scale(0.100000,-0.100000)"
fill="#000000" stroke="none">
<path d="M92 428 c-17 -17 -17 -359 0 -376 17 -17 279 -17 296 0 17 17 17 359
0 376 -17 17 -279 17 -296 0z m123 -78 c0 -18 -6 -26 -23 -28 -13 -2 -25 3
-28 12 -10 26 4 48 28 44 17 -2 23 -10 23 -28z m120 10 c0 -18 -33 -26 -47
-12 -6 6 -7 15 -3 22 10 16 50 8 50 -10z m-107 -72 c22 -22 13 -28 -38 -28
-27 0 -50 4 -50 8 0 16 25 32 50 32 14 0 31 -5 38 -12z m107 -8 c0 -18 -33
-26 -47 -12 -6 6 -7 15 -3 22 10 16 50 8 50 -10z m0 -80 c0 -12 -18 -16 -89
-18 -87 -3 -115 5 -101 27 4 8 38 11 98 9 74 -2 92 -6 92 -18z m0 -80 c0 -12
-18 -16 -89 -18 -87 -3 -115 5 -101 27 4 8 38 11 98 9 74 -2 92 -6 92 -18z"/>
</g>
</svg>
