<?xml version="1.0" ?><svg data-name="Layer 1" id="Layer_1" viewBox="0 0 32 32" xmlns="http://www.w3.org/2000/svg"><path d="M27.285,16c-.246-.4367.07595-.57568-1.623-.57568l-1.93646-.06018a13.25294,13.25294,0,0,1-4.498-.81744,3.80215,3.80215,0,0,1-1.85864-2.01117,11.89627,11.89627,0,0,1-.73517-3.36133c-.19177-2.07544-.21679-4.338-.2221-6.65619.00366-.44147.00775-.87848.00879-1.34515,0,0,.0307-.56734-.67428-.56734-.69159,0-.61595.56734-.61595.56734-.00024.42437-.00024.86566.00067,1.31677-.01092,1.70831-.027,3.42529-.1195,5.107-.13452,2.083-.328,4.24713-1.29706,5.70508a3.94524,3.94524,0,0,1-2.01312,1.43909,12.569,12.569,0,0,1-2.54969.45837c-1.70086.14948-3.30035.1225-4.65716.13935a.6436.6436,0,0,0-.69548.66412.66329.66329,0,0,0,.69548.65875c.61944.00379,1.03815.00641,1.43158.00879.74383.01514,1.813.01019,3.067.113A8.17421,8.17421,0,0,1,12.902,17.8449c1.18818.75568,1.65107,2.45252,1.91156,4.14637a44.10013,44.10013,0,0,1,.354,5.2818c.036,1.22662.03418,2.46771.04773,3.554,0,0,.01881.3762.54241.3762a.56642.56642,0,0,0,.57752-.64691,68.26268,68.26268,0,0,1,.28363-8.29393,10.20012,10.20012,0,0,1,.80976-3.12982,3.79355,3.79355,0,0,1,1.48657-1.58032,8.908,8.908,0,0,1,3.25079-.8385c1.00891-.08313,1.86456-.12372,2.56635-.14117a20.00536,20.00536,0,0,0,2.31457-.11988C27.13263,16.4248,27.19542,15.84093,27.285,16Z"/></svg>